<?xml version="1.0" standalone="no"?>
<!DOCTYPE svg PUBLIC "-//W3C//DTD SVG 20010904//EN"
 "http://www.w3.org/TR/2001/REC-SVG-20010904/DTD/svg10.dtd">
<svg version="1.0" xmlns="http://www.w3.org/2000/svg"
 width="700.000000pt" height="700.000000pt" viewBox="0 0 700.000000 700.000000"
 preserveAspectRatio="xMidYMid meet">

<g transform="translate(0.000000,700.000000) scale(0.100000,-0.100000)"
fill="#000000" stroke="none">
<path d="M3485 3959 c-177 -25 -327 -183 -371 -392 -24 -110 -15 -259 19 -328
40 -82 81 -125 152 -160 153 -75 340 -36 466 97 111 119 171 335 139 505 -22
114 -86 202 -183 248 -70 33 -134 42 -222 30z m124 -164 c41 -21 79 -69 92
-118 18 -67 7 -231 -21 -302 -32 -85 -107 -159 -175 -173 -128 -27 -209 45
-221 200 -10 126 32 269 99 338 62 64 163 88 226 55z"/>
</g>
</svg>
